%TF.GenerationSoftware,KiCad,Pcbnew,(6.0.10-0)*%
%TF.CreationDate,2023-02-17T15:36:54-08:00*%
%TF.ProjectId,555timer,35353574-696d-4657-922e-6b696361645f,rev?*%
%TF.SameCoordinates,Original*%
%TF.FileFunction,Copper,L2,Bot*%
%TF.FilePolarity,Positive*%
%FSLAX46Y46*%
G04 Gerber Fmt 4.6, Leading zero omitted, Abs format (unit mm)*
G04 Created by KiCad (PCBNEW (6.0.10-0)) date 2023-02-17 15:36:54*
%MOMM*%
%LPD*%
G01*
G04 APERTURE LIST*
%TA.AperFunction,ComponentPad*%
%ADD10R,3.000000X3.000000*%
%TD*%
%TA.AperFunction,ComponentPad*%
%ADD11C,3.000000*%
%TD*%
%TA.AperFunction,ViaPad*%
%ADD12C,0.800000*%
%TD*%
%TA.AperFunction,Conductor*%
%ADD13C,0.250000*%
%TD*%
G04 APERTURE END LIST*
D10*
%TO.P,J1,1,Pin_1*%
%TO.N,+9V*%
X134620000Y-76200000D03*
D11*
%TO.P,J1,2,Pin_2*%
%TO.N,GND*%
X139700000Y-76200000D03*
%TD*%
D12*
%TO.N,/pin_2*%
X139700000Y-83820000D03*
X132080000Y-93980000D03*
%TO.N,GND*%
X132080000Y-86360000D03*
X139700000Y-86360000D03*
%TO.N,+9V*%
X142240000Y-96520000D03*
X132080000Y-88900000D03*
%TO.N,/pin_3*%
X142240000Y-91440000D03*
X137160000Y-88900000D03*
%TD*%
D13*
%TO.N,/pin_2*%
X133594695Y-83820000D02*
X129540000Y-87874695D01*
X139700000Y-83820000D02*
X133594695Y-83820000D01*
X129540000Y-87874695D02*
X129540000Y-91440000D01*
X129540000Y-91440000D02*
X132080000Y-93980000D01*
%TO.N,GND*%
X132080000Y-86360000D02*
X139700000Y-86360000D01*
%TO.N,+9V*%
X142240000Y-96520000D02*
X134620000Y-88900000D01*
X134620000Y-88900000D02*
X132080000Y-88900000D01*
%TO.N,/pin_3*%
X139700000Y-88900000D02*
X137160000Y-88900000D01*
X142240000Y-91440000D02*
X139700000Y-88900000D01*
%TD*%
%TA.AperFunction,Conductor*%
%TO.N,GND*%
G36*
X154882121Y-68600002D02*
G01*
X154928614Y-68653658D01*
X154940000Y-68706000D01*
X154940000Y-104014000D01*
X154919998Y-104082121D01*
X154866342Y-104128614D01*
X154814000Y-104140000D01*
X119506000Y-104140000D01*
X119437879Y-104119998D01*
X119391386Y-104066342D01*
X119380000Y-104014000D01*
X119380000Y-87854638D01*
X128901780Y-87854638D01*
X128902526Y-87862530D01*
X128905941Y-87898656D01*
X128906500Y-87910514D01*
X128906500Y-91361233D01*
X128905973Y-91372416D01*
X128904298Y-91379909D01*
X128904547Y-91387835D01*
X128904547Y-91387836D01*
X128906438Y-91447986D01*
X128906500Y-91451945D01*
X128906500Y-91479856D01*
X128906997Y-91483790D01*
X128906997Y-91483791D01*
X128907005Y-91483856D01*
X128907938Y-91495693D01*
X128909327Y-91539889D01*
X128914978Y-91559339D01*
X128918987Y-91578700D01*
X128921526Y-91598797D01*
X128924445Y-91606168D01*
X128924445Y-91606170D01*
X128937804Y-91639912D01*
X128941649Y-91651142D01*
X128953982Y-91693593D01*
X128958015Y-91700412D01*
X128958017Y-91700417D01*
X128964293Y-91711028D01*
X128972988Y-91728776D01*
X128980448Y-91747617D01*
X128985110Y-91754033D01*
X128985110Y-91754034D01*
X129006436Y-91783387D01*
X129012952Y-91793307D01*
X129023745Y-91811556D01*
X129035458Y-91831362D01*
X129049779Y-91845683D01*
X129062619Y-91860716D01*
X129074528Y-91877107D01*
X129080634Y-91882158D01*
X129108605Y-91905298D01*
X129117384Y-91913288D01*
X131132878Y-93928782D01*
X131166904Y-93991094D01*
X131169092Y-94004703D01*
X131186458Y-94169928D01*
X131245473Y-94351556D01*
X131340960Y-94516944D01*
X131468747Y-94658866D01*
X131623248Y-94771118D01*
X131629276Y-94773802D01*
X131629278Y-94773803D01*
X131791681Y-94846109D01*
X131797712Y-94848794D01*
X131891113Y-94868647D01*
X131978056Y-94887128D01*
X131978061Y-94887128D01*
X131984513Y-94888500D01*
X132175487Y-94888500D01*
X132181939Y-94887128D01*
X132181944Y-94887128D01*
X132268888Y-94868647D01*
X132362288Y-94848794D01*
X132368319Y-94846109D01*
X132530722Y-94773803D01*
X132530724Y-94773802D01*
X132536752Y-94771118D01*
X132691253Y-94658866D01*
X132819040Y-94516944D01*
X132914527Y-94351556D01*
X132973542Y-94169928D01*
X132993504Y-93980000D01*
X132973542Y-93790072D01*
X132914527Y-93608444D01*
X132819040Y-93443056D01*
X132691253Y-93301134D01*
X132536752Y-93188882D01*
X132530724Y-93186198D01*
X132530722Y-93186197D01*
X132368319Y-93113891D01*
X132368318Y-93113891D01*
X132362288Y-93111206D01*
X132268887Y-93091353D01*
X132181944Y-93072872D01*
X132181939Y-93072872D01*
X132175487Y-93071500D01*
X132119595Y-93071500D01*
X132051474Y-93051498D01*
X132030500Y-93034595D01*
X130210405Y-91214500D01*
X130176379Y-91152188D01*
X130173500Y-91125405D01*
X130173500Y-88900000D01*
X131166496Y-88900000D01*
X131186458Y-89089928D01*
X131245473Y-89271556D01*
X131340960Y-89436944D01*
X131468747Y-89578866D01*
X131623248Y-89691118D01*
X131629276Y-89693802D01*
X131629278Y-89693803D01*
X131791681Y-89766109D01*
X131797712Y-89768794D01*
X131891112Y-89788647D01*
X131978056Y-89807128D01*
X131978061Y-89807128D01*
X131984513Y-89808500D01*
X132175487Y-89808500D01*
X132181939Y-89807128D01*
X132181944Y-89807128D01*
X132268887Y-89788647D01*
X132362288Y-89768794D01*
X132368319Y-89766109D01*
X132530722Y-89693803D01*
X132530724Y-89693802D01*
X132536752Y-89691118D01*
X132691253Y-89578866D01*
X132695668Y-89573963D01*
X132700580Y-89569540D01*
X132701705Y-89570789D01*
X132755014Y-89537949D01*
X132788200Y-89533500D01*
X134305406Y-89533500D01*
X134373527Y-89553502D01*
X134394501Y-89570405D01*
X141292878Y-96468782D01*
X141326904Y-96531094D01*
X141329092Y-96544703D01*
X141346458Y-96709928D01*
X141405473Y-96891556D01*
X141500960Y-97056944D01*
X141628747Y-97198866D01*
X141783248Y-97311118D01*
X141789276Y-97313802D01*
X141789278Y-97313803D01*
X141951681Y-97386109D01*
X141957712Y-97388794D01*
X142051112Y-97408647D01*
X142138056Y-97427128D01*
X142138061Y-97427128D01*
X142144513Y-97428500D01*
X142335487Y-97428500D01*
X142341939Y-97427128D01*
X142341944Y-97427128D01*
X142428888Y-97408647D01*
X142522288Y-97388794D01*
X142528319Y-97386109D01*
X142690722Y-97313803D01*
X142690724Y-97313802D01*
X142696752Y-97311118D01*
X142851253Y-97198866D01*
X142979040Y-97056944D01*
X143074527Y-96891556D01*
X143133542Y-96709928D01*
X143153504Y-96520000D01*
X143133542Y-96330072D01*
X143074527Y-96148444D01*
X142979040Y-95983056D01*
X142851253Y-95841134D01*
X142696752Y-95728882D01*
X142690724Y-95726198D01*
X142690722Y-95726197D01*
X142528319Y-95653891D01*
X142528318Y-95653891D01*
X142522288Y-95651206D01*
X142428888Y-95631353D01*
X142341944Y-95612872D01*
X142341939Y-95612872D01*
X142335487Y-95611500D01*
X142279595Y-95611500D01*
X142211474Y-95591498D01*
X142190500Y-95574595D01*
X136386363Y-89770458D01*
X136375398Y-89750377D01*
X136369494Y-89748765D01*
X136346489Y-89730584D01*
X135515905Y-88900000D01*
X136246496Y-88900000D01*
X136266458Y-89089928D01*
X136325473Y-89271556D01*
X136420960Y-89436944D01*
X136425378Y-89441851D01*
X136425379Y-89441852D01*
X136529220Y-89557179D01*
X136535734Y-89570751D01*
X136535843Y-89570775D01*
X136549519Y-89579427D01*
X136703248Y-89691118D01*
X136709276Y-89693802D01*
X136709278Y-89693803D01*
X136871681Y-89766109D01*
X136877712Y-89768794D01*
X136971112Y-89788647D01*
X137058056Y-89807128D01*
X137058061Y-89807128D01*
X137064513Y-89808500D01*
X137255487Y-89808500D01*
X137261939Y-89807128D01*
X137261944Y-89807128D01*
X137348887Y-89788647D01*
X137442288Y-89768794D01*
X137448319Y-89766109D01*
X137610722Y-89693803D01*
X137610724Y-89693802D01*
X137616752Y-89691118D01*
X137771253Y-89578866D01*
X137775668Y-89573963D01*
X137780580Y-89569540D01*
X137781705Y-89570789D01*
X137835014Y-89537949D01*
X137868200Y-89533500D01*
X139385406Y-89533500D01*
X139453527Y-89553502D01*
X139474501Y-89570405D01*
X141292878Y-91388782D01*
X141326904Y-91451094D01*
X141329092Y-91464703D01*
X141346458Y-91629928D01*
X141405473Y-91811556D01*
X141408776Y-91817278D01*
X141408777Y-91817279D01*
X141425176Y-91845683D01*
X141500960Y-91976944D01*
X141628747Y-92118866D01*
X141783248Y-92231118D01*
X141789276Y-92233802D01*
X141789278Y-92233803D01*
X141951681Y-92306109D01*
X141957712Y-92308794D01*
X142051112Y-92328647D01*
X142138056Y-92347128D01*
X142138061Y-92347128D01*
X142144513Y-92348500D01*
X142335487Y-92348500D01*
X142341939Y-92347128D01*
X142341944Y-92347128D01*
X142428888Y-92328647D01*
X142522288Y-92308794D01*
X142528319Y-92306109D01*
X142690722Y-92233803D01*
X142690724Y-92233802D01*
X142696752Y-92231118D01*
X142851253Y-92118866D01*
X142979040Y-91976944D01*
X143054824Y-91845683D01*
X143071223Y-91817279D01*
X143071224Y-91817278D01*
X143074527Y-91811556D01*
X143133542Y-91629928D01*
X143153504Y-91440000D01*
X143133542Y-91250072D01*
X143074527Y-91068444D01*
X142979040Y-90903056D01*
X142851253Y-90761134D01*
X142696752Y-90648882D01*
X142690724Y-90646198D01*
X142690722Y-90646197D01*
X142528319Y-90573891D01*
X142528318Y-90573891D01*
X142522288Y-90571206D01*
X142428887Y-90551353D01*
X142341944Y-90532872D01*
X142341939Y-90532872D01*
X142335487Y-90531500D01*
X142279595Y-90531500D01*
X142211474Y-90511498D01*
X142190500Y-90494595D01*
X140203652Y-88507747D01*
X140196112Y-88499461D01*
X140192000Y-88492982D01*
X140142348Y-88446356D01*
X140139507Y-88443602D01*
X140119770Y-88423865D01*
X140116573Y-88421385D01*
X140107551Y-88413680D01*
X140081100Y-88388841D01*
X140075321Y-88383414D01*
X140068375Y-88379595D01*
X140068372Y-88379593D01*
X140057566Y-88373652D01*
X140041047Y-88362801D01*
X140035048Y-88358148D01*
X140025041Y-88350386D01*
X140017772Y-88347241D01*
X140017768Y-88347238D01*
X139984463Y-88332826D01*
X139973813Y-88327609D01*
X139935060Y-88306305D01*
X139915437Y-88301267D01*
X139896734Y-88294863D01*
X139885420Y-88289967D01*
X139885419Y-88289967D01*
X139878145Y-88286819D01*
X139870322Y-88285580D01*
X139870312Y-88285577D01*
X139834476Y-88279901D01*
X139822856Y-88277495D01*
X139787711Y-88268472D01*
X139787710Y-88268472D01*
X139780030Y-88266500D01*
X139759776Y-88266500D01*
X139740065Y-88264949D01*
X139727886Y-88263020D01*
X139720057Y-88261780D01*
X139712165Y-88262526D01*
X139676039Y-88265941D01*
X139664181Y-88266500D01*
X137868200Y-88266500D01*
X137800079Y-88246498D01*
X137780853Y-88230157D01*
X137780580Y-88230460D01*
X137775668Y-88226037D01*
X137771253Y-88221134D01*
X137616752Y-88108882D01*
X137610724Y-88106198D01*
X137610722Y-88106197D01*
X137448319Y-88033891D01*
X137448318Y-88033891D01*
X137442288Y-88031206D01*
X137348887Y-88011353D01*
X137261944Y-87992872D01*
X137261939Y-87992872D01*
X137255487Y-87991500D01*
X137064513Y-87991500D01*
X137058061Y-87992872D01*
X137058056Y-87992872D01*
X136971112Y-88011353D01*
X136877712Y-88031206D01*
X136871682Y-88033891D01*
X136871681Y-88033891D01*
X136709278Y-88106197D01*
X136709276Y-88106198D01*
X136703248Y-88108882D01*
X136548747Y-88221134D01*
X136544326Y-88226044D01*
X136544325Y-88226045D01*
X136435203Y-88347238D01*
X136420960Y-88363056D01*
X136325473Y-88528444D01*
X136266458Y-88710072D01*
X136246496Y-88900000D01*
X135515905Y-88900000D01*
X135123652Y-88507747D01*
X135116112Y-88499461D01*
X135112000Y-88492982D01*
X135062348Y-88446356D01*
X135059507Y-88443602D01*
X135039770Y-88423865D01*
X135036573Y-88421385D01*
X135027551Y-88413680D01*
X135001100Y-88388841D01*
X134995321Y-88383414D01*
X134988375Y-88379595D01*
X134988372Y-88379593D01*
X134977566Y-88373652D01*
X134961047Y-88362801D01*
X134955048Y-88358148D01*
X134945041Y-88350386D01*
X134937772Y-88347241D01*
X134937768Y-88347238D01*
X134904463Y-88332826D01*
X134893813Y-88327609D01*
X134855060Y-88306305D01*
X134835437Y-88301267D01*
X134816734Y-88294863D01*
X134805420Y-88289967D01*
X134805419Y-88289967D01*
X134798145Y-88286819D01*
X134790322Y-88285580D01*
X134790312Y-88285577D01*
X134754476Y-88279901D01*
X134742856Y-88277495D01*
X134707711Y-88268472D01*
X134707710Y-88268472D01*
X134700030Y-88266500D01*
X134679776Y-88266500D01*
X134660065Y-88264949D01*
X134647886Y-88263020D01*
X134640057Y-88261780D01*
X134632165Y-88262526D01*
X134596039Y-88265941D01*
X134584181Y-88266500D01*
X132788200Y-88266500D01*
X132720079Y-88246498D01*
X132700853Y-88230157D01*
X132700580Y-88230460D01*
X132695668Y-88226037D01*
X132691253Y-88221134D01*
X132536752Y-88108882D01*
X132530724Y-88106198D01*
X132530722Y-88106197D01*
X132368319Y-88033891D01*
X132368318Y-88033891D01*
X132362288Y-88031206D01*
X132268887Y-88011353D01*
X132181944Y-87992872D01*
X132181939Y-87992872D01*
X132175487Y-87991500D01*
X131984513Y-87991500D01*
X131978061Y-87992872D01*
X131978056Y-87992872D01*
X131891112Y-88011353D01*
X131797712Y-88031206D01*
X131791682Y-88033891D01*
X131791681Y-88033891D01*
X131629278Y-88106197D01*
X131629276Y-88106198D01*
X131623248Y-88108882D01*
X131468747Y-88221134D01*
X131464326Y-88226044D01*
X131464325Y-88226045D01*
X131355203Y-88347238D01*
X131340960Y-88363056D01*
X131245473Y-88528444D01*
X131186458Y-88710072D01*
X131166496Y-88900000D01*
X130173500Y-88900000D01*
X130173500Y-88189289D01*
X130193502Y-88121168D01*
X130210405Y-88100194D01*
X133820194Y-84490405D01*
X133882506Y-84456379D01*
X133909289Y-84453500D01*
X138991800Y-84453500D01*
X139059921Y-84473502D01*
X139079147Y-84489843D01*
X139079420Y-84489540D01*
X139084332Y-84493963D01*
X139088747Y-84498866D01*
X139243248Y-84611118D01*
X139249276Y-84613802D01*
X139249278Y-84613803D01*
X139411681Y-84686109D01*
X139417712Y-84688794D01*
X139511113Y-84708647D01*
X139598056Y-84727128D01*
X139598061Y-84727128D01*
X139604513Y-84728500D01*
X139795487Y-84728500D01*
X139801939Y-84727128D01*
X139801944Y-84727128D01*
X139888887Y-84708647D01*
X139982288Y-84688794D01*
X139988319Y-84686109D01*
X140150722Y-84613803D01*
X140150724Y-84613802D01*
X140156752Y-84611118D01*
X140311253Y-84498866D01*
X140334091Y-84473502D01*
X140434621Y-84361852D01*
X140434622Y-84361851D01*
X140439040Y-84356944D01*
X140534527Y-84191556D01*
X140593542Y-84009928D01*
X140613504Y-83820000D01*
X140593542Y-83630072D01*
X140534527Y-83448444D01*
X140439040Y-83283056D01*
X140422881Y-83265109D01*
X140315675Y-83146045D01*
X140315674Y-83146044D01*
X140311253Y-83141134D01*
X140156752Y-83028882D01*
X140150724Y-83026198D01*
X140150722Y-83026197D01*
X139988319Y-82953891D01*
X139988318Y-82953891D01*
X139982288Y-82951206D01*
X139888888Y-82931353D01*
X139801944Y-82912872D01*
X139801939Y-82912872D01*
X139795487Y-82911500D01*
X139604513Y-82911500D01*
X139598061Y-82912872D01*
X139598056Y-82912872D01*
X139511112Y-82931353D01*
X139417712Y-82951206D01*
X139411682Y-82953891D01*
X139411681Y-82953891D01*
X139249278Y-83026197D01*
X139249276Y-83026198D01*
X139243248Y-83028882D01*
X139088747Y-83141134D01*
X139084332Y-83146037D01*
X139079420Y-83150460D01*
X139078295Y-83149211D01*
X139024986Y-83182051D01*
X138991800Y-83186500D01*
X133673463Y-83186500D01*
X133662280Y-83185973D01*
X133654787Y-83184298D01*
X133646861Y-83184547D01*
X133646860Y-83184547D01*
X133586697Y-83186438D01*
X133582739Y-83186500D01*
X133554839Y-83186500D01*
X133550849Y-83187004D01*
X133539015Y-83187936D01*
X133494806Y-83189326D01*
X133487190Y-83191539D01*
X133487188Y-83191539D01*
X133475347Y-83194979D01*
X133455988Y-83198988D01*
X133454678Y-83199154D01*
X133435898Y-83201526D01*
X133428532Y-83204442D01*
X133428526Y-83204444D01*
X133394793Y-83217800D01*
X133383563Y-83221645D01*
X133348712Y-83231770D01*
X133341102Y-83233981D01*
X133334279Y-83238016D01*
X133323661Y-83244295D01*
X133305908Y-83252992D01*
X133298263Y-83256019D01*
X133287078Y-83260448D01*
X133280663Y-83265109D01*
X133251307Y-83286437D01*
X133241390Y-83292951D01*
X133203333Y-83315458D01*
X133189012Y-83329779D01*
X133173979Y-83342619D01*
X133157588Y-83354528D01*
X133152537Y-83360634D01*
X133129397Y-83388605D01*
X133121407Y-83397384D01*
X129147747Y-87371043D01*
X129139461Y-87378583D01*
X129132982Y-87382695D01*
X129127557Y-87388472D01*
X129086357Y-87432346D01*
X129083602Y-87435188D01*
X129063865Y-87454925D01*
X129061385Y-87458122D01*
X129053682Y-87467142D01*
X129023414Y-87499374D01*
X129019595Y-87506320D01*
X129019593Y-87506323D01*
X129013652Y-87517129D01*
X129002801Y-87533648D01*
X128990386Y-87549654D01*
X128987241Y-87556923D01*
X128987238Y-87556927D01*
X128972826Y-87590232D01*
X128967609Y-87600882D01*
X128946305Y-87639635D01*
X128944334Y-87647310D01*
X128944334Y-87647311D01*
X128941267Y-87659257D01*
X128934863Y-87677961D01*
X128926819Y-87696550D01*
X128925580Y-87704373D01*
X128925577Y-87704383D01*
X128919901Y-87740219D01*
X128917495Y-87751839D01*
X128906500Y-87794665D01*
X128906500Y-87814919D01*
X128904949Y-87834629D01*
X128901780Y-87854638D01*
X119380000Y-87854638D01*
X119380000Y-77748134D01*
X132611500Y-77748134D01*
X132618255Y-77810316D01*
X132669385Y-77946705D01*
X132756739Y-78063261D01*
X132873295Y-78150615D01*
X133009684Y-78201745D01*
X133071866Y-78208500D01*
X136168134Y-78208500D01*
X136230316Y-78201745D01*
X136366705Y-78150615D01*
X136483261Y-78063261D01*
X136570615Y-77946705D01*
X136621745Y-77810316D01*
X136623990Y-77789654D01*
X138475618Y-77789654D01*
X138482673Y-77799627D01*
X138513679Y-77825551D01*
X138520598Y-77830579D01*
X138745272Y-77971515D01*
X138752807Y-77975556D01*
X138994520Y-78084694D01*
X139002551Y-78087680D01*
X139256832Y-78163002D01*
X139265184Y-78164869D01*
X139527340Y-78204984D01*
X139535874Y-78205700D01*
X139801045Y-78209867D01*
X139809596Y-78209418D01*
X140072883Y-78177557D01*
X140081284Y-78175955D01*
X140337824Y-78108653D01*
X140345926Y-78105926D01*
X140590949Y-78004434D01*
X140598617Y-78000628D01*
X140827598Y-77866822D01*
X140834679Y-77862009D01*
X140914655Y-77799301D01*
X140923125Y-77787442D01*
X140916608Y-77775818D01*
X139712812Y-76572022D01*
X139698868Y-76564408D01*
X139697035Y-76564539D01*
X139690420Y-76568790D01*
X138482910Y-77776300D01*
X138475618Y-77789654D01*
X136623990Y-77789654D01*
X136628500Y-77748134D01*
X136628500Y-76183204D01*
X137687665Y-76183204D01*
X137702932Y-76447969D01*
X137704005Y-76456470D01*
X137755065Y-76716722D01*
X137757276Y-76724974D01*
X137843184Y-76975894D01*
X137846499Y-76983779D01*
X137965664Y-77220713D01*
X137970020Y-77228079D01*
X138099347Y-77416250D01*
X138109601Y-77424594D01*
X138123342Y-77417448D01*
X139327978Y-76212812D01*
X139334356Y-76201132D01*
X140064408Y-76201132D01*
X140064539Y-76202965D01*
X140068790Y-76209580D01*
X141275730Y-77416520D01*
X141287939Y-77423187D01*
X141299439Y-77414497D01*
X141396831Y-77281913D01*
X141401418Y-77274685D01*
X141527962Y-77041621D01*
X141531530Y-77033827D01*
X141625271Y-76785750D01*
X141627748Y-76777544D01*
X141686954Y-76519038D01*
X141688294Y-76510577D01*
X141712031Y-76244616D01*
X141712277Y-76239677D01*
X141712666Y-76202485D01*
X141712523Y-76197519D01*
X141694362Y-75931123D01*
X141693201Y-75922649D01*
X141639419Y-75662944D01*
X141637120Y-75654709D01*
X141548588Y-75404705D01*
X141545191Y-75396854D01*
X141423550Y-75161178D01*
X141419122Y-75153866D01*
X141300031Y-74984417D01*
X141289509Y-74976037D01*
X141276121Y-74983089D01*
X140072022Y-76187188D01*
X140064408Y-76201132D01*
X139334356Y-76201132D01*
X139335592Y-76198868D01*
X139335461Y-76197035D01*
X139331210Y-76190420D01*
X138123814Y-74983024D01*
X138111804Y-74976466D01*
X138100064Y-74985434D01*
X137991935Y-75135911D01*
X137987418Y-75143196D01*
X137863325Y-75377567D01*
X137859839Y-75385395D01*
X137768700Y-75634446D01*
X137766311Y-75642670D01*
X137709812Y-75901795D01*
X137708563Y-75910250D01*
X137687754Y-76174653D01*
X137687665Y-76183204D01*
X136628500Y-76183204D01*
X136628500Y-74651866D01*
X136624224Y-74612500D01*
X138476584Y-74612500D01*
X138482980Y-74623770D01*
X139687188Y-75827978D01*
X139701132Y-75835592D01*
X139702965Y-75835461D01*
X139709580Y-75831210D01*
X140916604Y-74624186D01*
X140923795Y-74611017D01*
X140916473Y-74600780D01*
X140869233Y-74562115D01*
X140862261Y-74557160D01*
X140636122Y-74418582D01*
X140628552Y-74414624D01*
X140385704Y-74308022D01*
X140377644Y-74305120D01*
X140122592Y-74232467D01*
X140114214Y-74230685D01*
X139851656Y-74193318D01*
X139843111Y-74192691D01*
X139577908Y-74191302D01*
X139569374Y-74191839D01*
X139306433Y-74226456D01*
X139298035Y-74228149D01*
X139042238Y-74298127D01*
X139034143Y-74300946D01*
X138790199Y-74404997D01*
X138782577Y-74408881D01*
X138555013Y-74545075D01*
X138547981Y-74549962D01*
X138485053Y-74600377D01*
X138476584Y-74612500D01*
X136624224Y-74612500D01*
X136621745Y-74589684D01*
X136570615Y-74453295D01*
X136483261Y-74336739D01*
X136366705Y-74249385D01*
X136230316Y-74198255D01*
X136168134Y-74191500D01*
X133071866Y-74191500D01*
X133009684Y-74198255D01*
X132873295Y-74249385D01*
X132756739Y-74336739D01*
X132669385Y-74453295D01*
X132618255Y-74589684D01*
X132611500Y-74651866D01*
X132611500Y-77748134D01*
X119380000Y-77748134D01*
X119380000Y-68706000D01*
X119400002Y-68637879D01*
X119453658Y-68591386D01*
X119506000Y-68580000D01*
X154814000Y-68580000D01*
X154882121Y-68600002D01*
G37*
%TD.AperFunction*%
%TD*%
M02*
