%TF.GenerationSoftware,KiCad,Pcbnew,(6.0.10-0)*%
%TF.CreationDate,2023-02-17T15:36:54-08:00*%
%TF.ProjectId,555timer,35353574-696d-4657-922e-6b696361645f,rev?*%
%TF.SameCoordinates,Original*%
%TF.FileFunction,Legend,Top*%
%TF.FilePolarity,Positive*%
%FSLAX46Y46*%
G04 Gerber Fmt 4.6, Leading zero omitted, Abs format (unit mm)*
G04 Created by KiCad (PCBNEW (6.0.10-0)) date 2023-02-17 15:36:54*
%MOMM*%
%LPD*%
G01*
G04 APERTURE LIST*
%ADD10C,0.150000*%
%ADD11C,0.120000*%
G04 APERTURE END LIST*
D10*
X158536190Y-102004761D02*
X158679047Y-102052380D01*
X158917142Y-102052380D01*
X159012380Y-102004761D01*
X159060000Y-101957142D01*
X159107619Y-101861904D01*
X159107619Y-101766666D01*
X159060000Y-101671428D01*
X159012380Y-101623809D01*
X158917142Y-101576190D01*
X158726666Y-101528571D01*
X158631428Y-101480952D01*
X158583809Y-101433333D01*
X158536190Y-101338095D01*
X158536190Y-101242857D01*
X158583809Y-101147619D01*
X158631428Y-101100000D01*
X158726666Y-101052380D01*
X158964761Y-101052380D01*
X159107619Y-101100000D01*
X159536190Y-102052380D02*
X159536190Y-101052380D01*
X159964761Y-102052380D02*
X159964761Y-101528571D01*
X159917142Y-101433333D01*
X159821904Y-101385714D01*
X159679047Y-101385714D01*
X159583809Y-101433333D01*
X159536190Y-101480952D01*
X160440952Y-102052380D02*
X160440952Y-101385714D01*
X160440952Y-101052380D02*
X160393333Y-101100000D01*
X160440952Y-101147619D01*
X160488571Y-101100000D01*
X160440952Y-101052380D01*
X160440952Y-101147619D01*
X160821904Y-101385714D02*
X161060000Y-102052380D01*
X161298095Y-101385714D02*
X161060000Y-102052380D01*
X160964761Y-102290476D01*
X160917142Y-102338095D01*
X160821904Y-102385714D01*
X162107619Y-101385714D02*
X162107619Y-102052380D01*
X161679047Y-101385714D02*
X161679047Y-101909523D01*
X161726666Y-102004761D01*
X161821904Y-102052380D01*
X161964761Y-102052380D01*
X162060000Y-102004761D01*
X162107619Y-101957142D01*
X163917142Y-101957142D02*
X163869523Y-102004761D01*
X163726666Y-102052380D01*
X163631428Y-102052380D01*
X163488571Y-102004761D01*
X163393333Y-101909523D01*
X163345714Y-101814285D01*
X163298095Y-101623809D01*
X163298095Y-101480952D01*
X163345714Y-101290476D01*
X163393333Y-101195238D01*
X163488571Y-101100000D01*
X163631428Y-101052380D01*
X163726666Y-101052380D01*
X163869523Y-101100000D01*
X163917142Y-101147619D01*
X164345714Y-102052380D02*
X164345714Y-101052380D01*
X164774285Y-102052380D02*
X164774285Y-101528571D01*
X164726666Y-101433333D01*
X164631428Y-101385714D01*
X164488571Y-101385714D01*
X164393333Y-101433333D01*
X164345714Y-101480952D01*
X165631428Y-102004761D02*
X165536190Y-102052380D01*
X165345714Y-102052380D01*
X165250476Y-102004761D01*
X165202857Y-101909523D01*
X165202857Y-101528571D01*
X165250476Y-101433333D01*
X165345714Y-101385714D01*
X165536190Y-101385714D01*
X165631428Y-101433333D01*
X165679047Y-101528571D01*
X165679047Y-101623809D01*
X165202857Y-101719047D01*
X166107619Y-101385714D02*
X166107619Y-102052380D01*
X166107619Y-101480952D02*
X166155238Y-101433333D01*
X166250476Y-101385714D01*
X166393333Y-101385714D01*
X166488571Y-101433333D01*
X166536190Y-101528571D01*
X166536190Y-102052380D01*
%TO.C,D1*%
X139666904Y-104047380D02*
X139666904Y-103047380D01*
X139905000Y-103047380D01*
X140047857Y-103095000D01*
X140143095Y-103190238D01*
X140190714Y-103285476D01*
X140238333Y-103475952D01*
X140238333Y-103618809D01*
X140190714Y-103809285D01*
X140143095Y-103904523D01*
X140047857Y-103999761D01*
X139905000Y-104047380D01*
X139666904Y-104047380D01*
X141190714Y-104047380D02*
X140619285Y-104047380D01*
X140905000Y-104047380D02*
X140905000Y-103047380D01*
X140809761Y-103190238D01*
X140714523Y-103285476D01*
X140619285Y-103333095D01*
%TO.C,R2*%
X125664205Y-103271508D02*
X125330872Y-102795318D01*
X125092776Y-103271508D02*
X125092776Y-102271508D01*
X125473729Y-102271508D01*
X125568967Y-102319128D01*
X125616586Y-102366747D01*
X125664205Y-102461985D01*
X125664205Y-102604842D01*
X125616586Y-102700080D01*
X125568967Y-102747699D01*
X125473729Y-102795318D01*
X125092776Y-102795318D01*
X126045157Y-102366747D02*
X126092776Y-102319128D01*
X126188014Y-102271508D01*
X126426110Y-102271508D01*
X126521348Y-102319128D01*
X126568967Y-102366747D01*
X126616586Y-102461985D01*
X126616586Y-102557223D01*
X126568967Y-102700080D01*
X125997538Y-103271508D01*
X126616586Y-103271508D01*
%TO.C,R4*%
X145832380Y-92606666D02*
X145356190Y-92940000D01*
X145832380Y-93178095D02*
X144832380Y-93178095D01*
X144832380Y-92797142D01*
X144880000Y-92701904D01*
X144927619Y-92654285D01*
X145022857Y-92606666D01*
X145165714Y-92606666D01*
X145260952Y-92654285D01*
X145308571Y-92701904D01*
X145356190Y-92797142D01*
X145356190Y-93178095D01*
X145165714Y-91749523D02*
X145832380Y-91749523D01*
X144784761Y-91987619D02*
X145499047Y-92225714D01*
X145499047Y-91606666D01*
%TO.C,C2*%
X124639642Y-89066666D02*
X124687261Y-89114285D01*
X124734880Y-89257142D01*
X124734880Y-89352380D01*
X124687261Y-89495238D01*
X124592023Y-89590476D01*
X124496785Y-89638095D01*
X124306309Y-89685714D01*
X124163452Y-89685714D01*
X123972976Y-89638095D01*
X123877738Y-89590476D01*
X123782500Y-89495238D01*
X123734880Y-89352380D01*
X123734880Y-89257142D01*
X123782500Y-89114285D01*
X123830119Y-89066666D01*
X123830119Y-88685714D02*
X123782500Y-88638095D01*
X123734880Y-88542857D01*
X123734880Y-88304761D01*
X123782500Y-88209523D01*
X123830119Y-88161904D01*
X123925357Y-88114285D01*
X124020595Y-88114285D01*
X124163452Y-88161904D01*
X124734880Y-88733333D01*
X124734880Y-88114285D01*
%TO.C,R1*%
X131688333Y-103320316D02*
X131355000Y-102844126D01*
X131116904Y-103320316D02*
X131116904Y-102320316D01*
X131497857Y-102320316D01*
X131593095Y-102367936D01*
X131640714Y-102415555D01*
X131688333Y-102510793D01*
X131688333Y-102653650D01*
X131640714Y-102748888D01*
X131593095Y-102796507D01*
X131497857Y-102844126D01*
X131116904Y-102844126D01*
X132640714Y-103320316D02*
X132069285Y-103320316D01*
X132355000Y-103320316D02*
X132355000Y-102320316D01*
X132259761Y-102463174D01*
X132164523Y-102558412D01*
X132069285Y-102606031D01*
%TO.C,J1*%
X136826666Y-70572380D02*
X136826666Y-71286666D01*
X136779047Y-71429523D01*
X136683809Y-71524761D01*
X136540952Y-71572380D01*
X136445714Y-71572380D01*
X137826666Y-71572380D02*
X137255238Y-71572380D01*
X137540952Y-71572380D02*
X137540952Y-70572380D01*
X137445714Y-70715238D01*
X137350476Y-70810476D01*
X137255238Y-70858095D01*
%TO.C,D2*%
X145646904Y-83392380D02*
X145646904Y-82392380D01*
X145885000Y-82392380D01*
X146027857Y-82440000D01*
X146123095Y-82535238D01*
X146170714Y-82630476D01*
X146218333Y-82820952D01*
X146218333Y-82963809D01*
X146170714Y-83154285D01*
X146123095Y-83249523D01*
X146027857Y-83344761D01*
X145885000Y-83392380D01*
X145646904Y-83392380D01*
X146599285Y-82487619D02*
X146646904Y-82440000D01*
X146742142Y-82392380D01*
X146980238Y-82392380D01*
X147075476Y-82440000D01*
X147123095Y-82487619D01*
X147170714Y-82582857D01*
X147170714Y-82678095D01*
X147123095Y-82820952D01*
X146551666Y-83392380D01*
X147170714Y-83392380D01*
%TO.C,C1*%
X124604642Y-95679166D02*
X124652261Y-95726785D01*
X124699880Y-95869642D01*
X124699880Y-95964880D01*
X124652261Y-96107738D01*
X124557023Y-96202976D01*
X124461785Y-96250595D01*
X124271309Y-96298214D01*
X124128452Y-96298214D01*
X123937976Y-96250595D01*
X123842738Y-96202976D01*
X123747500Y-96107738D01*
X123699880Y-95964880D01*
X123699880Y-95869642D01*
X123747500Y-95726785D01*
X123795119Y-95679166D01*
X124699880Y-94726785D02*
X124699880Y-95298214D01*
X124699880Y-95012500D02*
X123699880Y-95012500D01*
X123842738Y-95107738D01*
X123937976Y-95202976D01*
X123985595Y-95298214D01*
%TO.C,U1*%
X140529880Y-92201904D02*
X141339404Y-92201904D01*
X141434642Y-92154285D01*
X141482261Y-92106666D01*
X141529880Y-92011428D01*
X141529880Y-91820952D01*
X141482261Y-91725714D01*
X141434642Y-91678095D01*
X141339404Y-91630476D01*
X140529880Y-91630476D01*
X141529880Y-90630476D02*
X141529880Y-91201904D01*
X141529880Y-90916190D02*
X140529880Y-90916190D01*
X140672738Y-91011428D01*
X140767976Y-91106666D01*
X140815595Y-91201904D01*
%TO.C,R3*%
X146153333Y-97862380D02*
X145820000Y-97386190D01*
X145581904Y-97862380D02*
X145581904Y-96862380D01*
X145962857Y-96862380D01*
X146058095Y-96910000D01*
X146105714Y-96957619D01*
X146153333Y-97052857D01*
X146153333Y-97195714D01*
X146105714Y-97290952D01*
X146058095Y-97338571D01*
X145962857Y-97386190D01*
X145581904Y-97386190D01*
X146486666Y-96862380D02*
X147105714Y-96862380D01*
X146772380Y-97243333D01*
X146915238Y-97243333D01*
X147010476Y-97290952D01*
X147058095Y-97338571D01*
X147105714Y-97433809D01*
X147105714Y-97671904D01*
X147058095Y-97767142D01*
X147010476Y-97814761D01*
X146915238Y-97862380D01*
X146629523Y-97862380D01*
X146534285Y-97814761D01*
X146486666Y-97767142D01*
D11*
%TO.C,D1*%
X142865000Y-102910000D02*
X142865000Y-100640000D01*
X142865000Y-100640000D02*
X138805000Y-100640000D01*
X138805000Y-102910000D02*
X142865000Y-102910000D01*
%TO.C,R2*%
X126057936Y-101904128D02*
X125603808Y-101904128D01*
X126057936Y-100434128D02*
X125603808Y-100434128D01*
%TO.C,R4*%
X146295000Y-92667064D02*
X146295000Y-92212936D01*
X147765000Y-92667064D02*
X147765000Y-92212936D01*
%TO.C,C2*%
X125227500Y-89161252D02*
X125227500Y-88638748D01*
X126697500Y-89161252D02*
X126697500Y-88638748D01*
%TO.C,R1*%
X132082064Y-101952936D02*
X131627936Y-101952936D01*
X132082064Y-100482936D02*
X131627936Y-100482936D01*
%TO.C,J1*%
X142240000Y-78740000D02*
X132080000Y-78740000D01*
X142240000Y-80010000D02*
X142240000Y-72390000D01*
X132080000Y-80010000D02*
X142240000Y-80010000D01*
X142240000Y-72390000D02*
X132080000Y-72390000D01*
X132080000Y-72390000D02*
X132080000Y-80010000D01*
%TO.C,D2*%
X143925000Y-85895000D02*
X147985000Y-85895000D01*
X143925000Y-83625000D02*
X143925000Y-85895000D01*
X147985000Y-83625000D02*
X143925000Y-83625000D01*
%TO.C,C1*%
X126932500Y-97997500D02*
X126932500Y-93912500D01*
X125062500Y-93912500D02*
X125062500Y-97997500D01*
X125062500Y-97997500D02*
X126932500Y-97997500D01*
%TO.C,U1*%
X135117500Y-91440000D02*
X135117500Y-93390000D01*
X140237500Y-91440000D02*
X140237500Y-87990000D01*
X135117500Y-91440000D02*
X135117500Y-89490000D01*
X140237500Y-91440000D02*
X140237500Y-93390000D01*
%TO.C,R3*%
X146092936Y-98325000D02*
X146547064Y-98325000D01*
X146092936Y-99795000D02*
X146547064Y-99795000D01*
%TD*%
M02*
